<svg xmlns="http://www.w3.org/2000/svg" viewBox="0 0 327.93 158.58"><defs><style>.cls-1,.cls-3,.cls-4{font-size:45px;font-family:AauxNext-Bold, Aaux Next;font-weight:700;}.cls-1,.cls-3,.cls-4,.cls-6{fill:#2b3990;}.cls-2,.cls-3{letter-spacing:0.02em;}.cls-4{letter-spacing:0.02em;}.cls-5{letter-spacing:0em;}</style></defs><g id="Layer_2" data-name="Layer 2"><g id="Layer_1-2" data-name="Layer 1"><text class="cls-1" transform="translate(17.76 38.2) scale(1.04 1)"><tspan class="cls-2">culinar</tspan><tspan x="138.37" y="0">y</tspan></text><text class="cls-3" transform="translate(54.93 83.4) scale(1.04 1)">cloud</text><text class="cls-4" transform="translate(102.78 126.67) scale(1.04 1)">net<tspan class="cls-5" x="63.13" y="0">w</tspan><tspan x="97.6" y="0">ork</tspan></text><path class="cls-6" d="M195,138.31a30.91,30.91,0,0,1-10.79,14.24,31.35,31.35,0,0,1-17.22,6A32.13,32.13,0,0,1,149,154a33.13,33.13,0,0,1-7.34-6,33.53,33.53,0,0,1-5.33-7.88,2.3,2.3,0,0,1-.24-1V139h0l4.53,1.88a39.38,39.38,0,0,1-20.22,11.19,44.27,44.27,0,0,1-5.84.78,57.88,57.88,0,0,1-5.89-.09A43.35,43.35,0,0,1,97.21,150,42.39,42.39,0,0,1,87,144a44.13,44.13,0,0,1-8-8.74,40,40,0,0,1-6.85-22.41l3.4,3.4a40.39,40.39,0,0,1-28.48-11.9A40.13,40.13,0,0,1,35.65,75.9l3,3A42.62,42.62,0,0,1,27.09,77a42.39,42.39,0,0,1-10.45-5.16,42.08,42.08,0,0,1-8.43-7.94,42.63,42.63,0,0,1-5.68-10A40.44,40.44,0,0,1,.06,42.71a54.16,54.16,0,0,1,0-5.7A40.75,40.75,0,0,1,1,31.41,38.15,38.15,0,0,1,5.13,21a37.79,37.79,0,0,1,7-8.59.5.5,0,0,1,.7.7A36.76,36.76,0,0,0,3.76,32a37.78,37.78,0,0,0-.47,5.2c0,1.74.18,3.47.31,5.19a39.63,39.63,0,0,0,2.8,9.9,37.77,37.77,0,0,0,5.48,8.61,40,40,0,0,0,7.66,6.63,37.2,37.2,0,0,0,9.17,4.12,38.77,38.77,0,0,0,9.93,1.29,3,3,0,0,1,3,3,33.94,33.94,0,0,0,34,33.58A3.38,3.38,0,0,1,79,112.75v.13a39.16,39.16,0,0,0,1.44,9.75,36.19,36.19,0,0,0,4.18,8.93,37.5,37.5,0,0,0,6.61,7.34,38.78,38.78,0,0,0,8.44,5.15,37,37,0,0,0,9.59,2.51c1.66.08,3.32.27,5,.19a37.61,37.61,0,0,0,5-.56,34.52,34.52,0,0,0,17.63-9l.07-.06a2.63,2.63,0,0,1,3.73.06,2.67,2.67,0,0,1,.74,1.88h0l-.24-1.11a28.52,28.52,0,0,0,25.74,17,29.12,29.12,0,0,0,15.88-4.4,30.41,30.41,0,0,0,11.27-12.57.5.5,0,0,1,.92.39Z"/></g></g></svg>