<svg xmlns="http://www.w3.org/2000/svg" viewBox="0 0 410.34 146.82"><defs><style>.cls-1{fill:none;stroke:#2b3990;stroke-linecap:round;stroke-linejoin:round;stroke-width:7px;}.cls-2,.cls-4,.cls-5{font-size:45px;fill:#2b3990;font-family:AauxNext-Bold, Aaux Next;font-weight:700;}.cls-3,.cls-4{letter-spacing:0.02em;}.cls-5{letter-spacing:0.02em;}.cls-6{letter-spacing:0em;}</style></defs><g id="Layer_2" data-name="Layer 2"><g id="Layer_1-2" data-name="Layer 1"><path class="cls-1" d="M217.37,133.4a30.52,30.52,0,0,1-51.1-31.32,30,30,0,0,1-6.8.78A30.38,30.38,0,0,1,137,92.94a30.52,30.52,0,0,1-51.1-31.32,30.42,30.42,0,0,1-29.32-9.14A30.52,30.52,0,0,1,3.5,31.9"/><text class="cls-2" transform="translate(26.03 38.21) scale(1.04 1)"><tspan class="cls-3">culinar</tspan><tspan x="138.37" y="0">y</tspan></text><text class="cls-4" transform="translate(103.85 81.93) scale(1.04 1)">cloud</text><text class="cls-5" transform="translate(185.2 122.2) scale(1.04 1)">net<tspan class="cls-6" x="63.13" y="0">w</tspan><tspan x="97.6" y="0">ork</tspan></text></g></g></svg>