<svg xmlns="http://www.w3.org/2000/svg" xmlns:xlink="http://www.w3.org/1999/xlink" viewBox="0 0 217.54 91.14"><defs><style>.cls-1{fill:url(#linear-gradient);}.cls-2,.cls-3{fill:#2b3990;}.cls-3{font-size:66px;font-family:AauxNext-Bold, Aaux Next;font-weight:700;letter-spacing:0.02em;}</style><linearGradient id="linear-gradient" x1="104.49" y1="87.8" x2="104.49" gradientUnits="userSpaceOnUse"><stop offset="0" stop-color="#2b3990" stop-opacity="0.7"/><stop offset="0.09" stop-color="#2b3990" stop-opacity="0.54"/><stop offset="0.23" stop-color="#2b3990" stop-opacity="0.34"/><stop offset="0.38" stop-color="#2b3990" stop-opacity="0.19"/><stop offset="0.54" stop-color="#2b3990" stop-opacity="0.08"/><stop offset="0.73" stop-color="#2b3990" stop-opacity="0.02"/><stop offset="1" stop-color="#2b3990" stop-opacity="0"/></linearGradient></defs><g id="Layer_2" data-name="Layer 2"><g id="Layer_1-2" data-name="Layer 1"><path class="cls-1" d="M208.08,43.9a43.9,43.9,0,0,1-73.75,32.19,43.87,43.87,0,0,1-59.68,0,43.9,43.9,0,1,1,0-64.38,43.87,43.87,0,0,1,59.68,0A43.9,43.9,0,0,1,208.08,43.9Z"/><path class="cls-2" d="M208.58,42.41c.12,1.07.2,2.15.3,3.24,0,.55.12,1.1.1,1.65l0,1.64-.06,1.65a13.11,13.11,0,0,1-.13,1.66c-.15,1.09-.34,2.19-.51,3.3a43.09,43.09,0,0,1-4.66,12.65A45.69,45.69,0,0,1,195.07,79a47.26,47.26,0,0,1-11.53,7.79c-1,.53-2.16.91-3.24,1.34l-1.65.64-1.69.48c-1.13.3-2.25.67-3.4.9l-3.48.57-.87.14c-.29,0-.59,0-.88.06l-1.76.11a29.57,29.57,0,0,1-3.52.11c-1.18,0-2.35-.12-3.52-.22s-2.33-.31-3.48-.56c-9.18-1.89-17.73-7.19-22.45-15h1.45a34.9,34.9,0,0,1-13.36,10.88,40.54,40.54,0,0,1-34.38,0A34.72,34.72,0,0,1,73.94,75.4l0,0h1.46a30.74,30.74,0,0,1-9.55,9.68,35.61,35.61,0,0,1-6.18,3.24c-1.08.44-2.19.82-3.3,1.18s-2.26.64-3.42.86-2.31.39-3.48.56-2.34.2-3.52.22A29.64,29.64,0,0,1,42.41,91l-1.76-.11c-.29,0-.58,0-.87-.06l-.87-.14-3.48-.57c-1.15-.23-2.28-.6-3.41-.9l-1.69-.48-1.64-.63c-1.09-.44-2.2-.82-3.24-1.35A47.56,47.56,0,0,1,13.91,79,46.21,46.21,0,0,1,5.41,68.2,43.38,43.38,0,0,1,.75,55.55c-.17-1.11-.35-2.21-.5-3.3a11.49,11.49,0,0,1-.13-1.66L.06,48.94,0,47.3c0-.55.08-1.1.11-1.65.09-1.09.18-2.17.3-3.24h1a57.43,57.43,0,0,0,3.33,12,49,49,0,0,0,6,10.32,46.66,46.66,0,0,0,8.3,8.2,45.6,45.6,0,0,0,10,5.62,43.66,43.66,0,0,0,11,2.71l.71.1c.23,0,.47,0,.7,0l1.42,0c.95,0,1.89.1,2.83.06A51.13,51.13,0,0,0,51.37,81a47.56,47.56,0,0,0,5.62-1,52.39,52.39,0,0,0,5.6-1.54,91.51,91.51,0,0,0,11.33-4.7l1.14-.53.32.53,0,0a63.75,63.75,0,0,0,14.24,6.48,50.7,50.7,0,0,0,29.71,0,62.78,62.78,0,0,0,14.25-6.49l.62-.37.84.37h0a92,92,0,0,0,11.33,4.69,55.64,55.64,0,0,0,5.6,1.55,49.83,49.83,0,0,0,5.63,1,50.77,50.77,0,0,0,5.65.42c.95,0,1.89,0,2.83-.06l1.42,0,.71,0,.7-.1a43.84,43.84,0,0,0,11-2.71l2.61-1.14a9.54,9.54,0,0,0,1.27-.66l1.26-.69,1.27-.68,1.19-.81c.78-.55,1.63-1,2.38-1.64a46.66,46.66,0,0,0,8.3-8.2,49,49,0,0,0,6-10.32,57.45,57.45,0,0,0,3.34-12Z"/><text class="cls-3" transform="translate(30.96 68.03) scale(1.04 1)">c c n</text></g></g></svg>