<svg xmlns="http://www.w3.org/2000/svg" viewBox="0 0 213.08 160.51"><defs><style>.cls-1{font-size:66px;font-family:AauxNext-Bold, Aaux Next;font-weight:700;letter-spacing:0.02em;}.cls-1,.cls-3{fill:#2b3990;}.cls-2{fill:#c8c6e0;}.cls-4,.cls-5,.cls-6{fill:none;stroke-linecap:round;}.cls-4{stroke:#c8c6e0;stroke-width:2.24px;}.cls-4,.cls-6{stroke-linejoin:round;}.cls-5,.cls-6{stroke:#2b3990;}.cls-5{stroke-miterlimit:10;stroke-width:1.68px;}.cls-6{stroke-width:7px;}</style></defs><g id="Layer_2" data-name="Layer 2"><g id="Layer_1-2" data-name="Layer 1"><text class="cls-1" transform="translate(26.5 134.41) scale(1.04 1)">c c n</text><path class="cls-2" d="M65.49,27.26a1.28,1.28,0,0,1-.93-.42,1.23,1.23,0,0,1-.32-1l2-22.77A1.25,1.25,0,0,1,67.54,2a1.19,1.19,0,0,1,.72.23L87,15.34a1.26,1.26,0,0,1-.19,2.17L66,27.14A1.24,1.24,0,0,1,65.49,27.26Z"/><path class="cls-3" d="M68.12,4.48l8.36,5.88,8.37,5.89-9.28,4.3-9.27,4.3.91-10.18.91-10.19M67.54,0a3.22,3.22,0,0,0-3.21,2.93l-1,11.39-1,11.39a3.22,3.22,0,0,0,4.56,3.2L77.22,24.1l10.37-4.81a3.22,3.22,0,0,0,.49-5.55L78.73,7.16,69.38.59A3.14,3.14,0,0,0,67.54,0Z"/><path class="cls-2" d="M134.58,27.26a1.32,1.32,0,0,1-.54-.12L113.3,17.51a1.26,1.26,0,0,1-.19-2.17l18.7-13.15a1.19,1.19,0,0,1,.72-.23,1.25,1.25,0,0,1,1.26,1.15l2,22.77a1.23,1.23,0,0,1-.32,1,1.28,1.28,0,0,1-.93.42Z"/><path class="cls-3" d="M132,4.48l.91,10.19.91,10.18-9.27-4.3-9.28-4.3,8.37-5.89L132,4.48M132.53,0a3.12,3.12,0,0,0-1.84.59l-9.35,6.57L112,13.74a3.22,3.22,0,0,0,.5,5.55l10.37,4.81,10.37,4.81a3.22,3.22,0,0,0,4.56-3.2l-1-11.39-1-11.39A3.22,3.22,0,0,0,132.53,0Z"/><path class="cls-2" d="M141.37,51.08c0,21.37-27.95,38.71-41.34,38.71S58.71,72.45,58.71,51.08c0-1.74,0-3.45.17-5.12V45.9a23.68,23.68,0,0,1,14.7.06A22.89,22.89,0,0,1,87.82,59.57a13.71,13.71,0,0,1,24.42,0A22.9,22.9,0,0,1,126.47,46a23.64,23.64,0,0,1,14.72-.05V46C141.31,47.63,141.37,49.34,141.37,51.08Z"/><path class="cls-3" d="M141.19,45.91a23.64,23.64,0,0,0-14.72.05,22.9,22.9,0,0,0-14.23,13.61,13.71,13.71,0,0,0-24.42,0A22.89,22.89,0,0,0,73.58,46a23.68,23.68,0,0,0-14.7-.06C60.25,27,69.83,12.37,100,12.37S139.82,27,141.19,45.91Z"/><circle class="cls-3" cx="100.03" cy="59.82" r="4.62"/><path class="cls-4" d="M93,46.46l-1.74-3.63a6.11,6.11,0,0,0-3.82-3.21L75.86,36.31"/><path class="cls-4" d="M107.07,46.46l1.74-3.63a6.11,6.11,0,0,1,3.82-3.21l11.57-3.31"/><path class="cls-3" d="M105.32,71.81a5.29,5.29,0,1,1-10.58,0A5.29,5.29,0,0,0,100,66.52,5.29,5.29,0,0,0,105.32,71.81Z"/><path class="cls-5" d="M100,66.52a5.29,5.29,0,0,1-10.58,0"/><path class="cls-5" d="M110.62,66.52a5.3,5.3,0,0,1-10.59,0"/><path class="cls-6" d="M198.85,111.27a45.74,45.74,0,0,1-71.7,37.66,45.78,45.78,0,0,1-51.94,0A45.75,45.75,0,0,1,3.5,111.27"/></g></g></svg>