<svg xmlns="http://www.w3.org/2000/svg" viewBox="0 0 217.54 157.52"><defs><style>.cls-1,.cls-2{fill:#2b3990;}.cls-2{font-size:66px;font-family:AauxNext-Bold, Aaux Next;font-weight:700;letter-spacing:0.02em;}.cls-3{fill:#c8c6e0;}.cls-4,.cls-5{fill:none;stroke-linecap:round;}.cls-4{stroke:#c8c6e0;stroke-linejoin:round;stroke-width:2.24px;}.cls-5{stroke:#2b3990;stroke-miterlimit:10;stroke-width:1.68px;}</style></defs><g id="Layer_2" data-name="Layer 2"><g id="Layer_1-2" data-name="Layer 1"><path class="cls-1" d="M208.58,108.79c.12,1.07.2,2.15.3,3.24,0,.55.12,1.1.1,1.65l0,1.64-.06,1.65a13,13,0,0,1-.13,1.66c-.15,1.09-.34,2.19-.51,3.3a43.09,43.09,0,0,1-4.66,12.65,46,46,0,0,1-8.5,10.79,47.5,47.5,0,0,1-11.53,7.78c-1,.53-2.16.91-3.24,1.35l-1.65.63-1.69.48c-1.13.3-2.25.67-3.4.9l-3.48.57-.87.14c-.29,0-.59,0-.88.06l-1.76.11a29.57,29.57,0,0,1-3.52.11c-1.18,0-2.35-.12-3.52-.22s-2.33-.31-3.48-.56c-9.18-1.88-17.73-7.19-22.45-14.95h1.45a34.81,34.81,0,0,1-13.36,10.88,40.54,40.54,0,0,1-34.38,0,34.72,34.72,0,0,1-13.37-10.87l0,0h1.46a30.74,30.74,0,0,1-9.55,9.68,35.61,35.61,0,0,1-6.18,3.24c-1.08.45-2.19.82-3.3,1.18s-2.26.64-3.42.86-2.31.39-3.48.56-2.34.2-3.52.22a29.64,29.64,0,0,1-3.52-.11l-1.76-.11-.87-.06-.87-.14-3.48-.57c-1.15-.23-2.28-.6-3.41-.9l-1.69-.48-1.64-.63c-1.09-.44-2.2-.82-3.24-1.35a47.28,47.28,0,0,1-11.54-7.78,46.21,46.21,0,0,1-8.5-10.79A43.38,43.38,0,0,1,.75,121.93c-.17-1.11-.35-2.21-.5-3.3A11.38,11.38,0,0,1,.12,117l-.06-1.65L0,113.68c0-.55.08-1.1.11-1.65.09-1.09.18-2.17.3-3.24h1a57.43,57.43,0,0,0,3.33,11.95,49,49,0,0,0,6,10.33,46.94,46.94,0,0,0,8.3,8.19,45.2,45.2,0,0,0,10,5.62,43.66,43.66,0,0,0,11,2.71l.71.1c.23,0,.47,0,.7,0l1.42.05c.95,0,1.89.11,2.83.06a48.82,48.82,0,0,0,5.66-.42,49.66,49.66,0,0,0,5.62-1,54.92,54.92,0,0,0,5.6-1.55,93,93,0,0,0,11.33-4.69l1.14-.54.32.54h0a63.3,63.3,0,0,0,14.24,6.48,50.7,50.7,0,0,0,29.71,0,63.17,63.17,0,0,0,14.25-6.48l.62-.38.84.38h0a90.51,90.51,0,0,0,11.33,4.69,55.64,55.64,0,0,0,5.6,1.55,49.83,49.83,0,0,0,5.63,1,48.48,48.48,0,0,0,5.65.42c.95,0,1.89,0,2.83-.06l1.42-.05.71,0,.7-.1a43.84,43.84,0,0,0,11-2.71l2.61-1.14a9.54,9.54,0,0,0,1.27-.66l1.26-.69,1.27-.68,1.19-.81c.78-.55,1.63-1,2.38-1.64a46.66,46.66,0,0,0,8.3-8.2,49,49,0,0,0,6-10.32,57.45,57.45,0,0,0,3.34-11.95Z"/><text class="cls-2" transform="translate(30.96 134.41) scale(1.04 1)">c c n</text><path class="cls-3" d="M70,27.26a1.32,1.32,0,0,1-.94-.42,1.27,1.27,0,0,1-.31-1l2-22.77A1.26,1.26,0,0,1,72,2a1.18,1.18,0,0,1,.71.23L91.42,15.34A1.25,1.25,0,0,1,92,16.48a1.23,1.23,0,0,1-.73,1L70.48,27.14A1.24,1.24,0,0,1,70,27.26Z"/><path class="cls-1" d="M72.57,4.48l8.37,5.88,8.36,5.89L80,20.55l-9.28,4.3.91-10.18.91-10.19M72,0a3.21,3.21,0,0,0-3.21,2.93l-1,11.39-1,11.39a3.21,3.21,0,0,0,3.2,3.5,3.11,3.11,0,0,0,1.35-.3L81.67,24.1l10.38-4.81a3.22,3.22,0,0,0,.49-5.55L83.19,7.16,73.84.59A3.16,3.16,0,0,0,72,0Z"/><path class="cls-3" d="M139,27.26a1.24,1.24,0,0,1-.53-.12l-20.74-9.63a1.19,1.19,0,0,1-.72-1,1.23,1.23,0,0,1,.53-1.14l18.7-13.15A1.18,1.18,0,0,1,137,2a1.26,1.26,0,0,1,1.27,1.15l2,22.77a1.23,1.23,0,0,1-.32,1,1.32,1.32,0,0,1-.94.42Z"/><path class="cls-1" d="M136.41,4.48l.91,10.19.91,10.18L129,20.55l-9.27-4.3L128,10.36l8.37-5.88M137,0a3.11,3.11,0,0,0-1.83.59l-9.36,6.57-9.35,6.58a3.22,3.22,0,0,0,.5,5.55l10.37,4.81,10.37,4.81a3.18,3.18,0,0,0,1.35.3,3.21,3.21,0,0,0,3.2-3.5l-1-11.39-1-11.39A3.22,3.22,0,0,0,137,0Z"/><path class="cls-3" d="M145.82,51.08c0,21.37-27.95,38.71-41.33,38.71S63.16,72.45,63.16,51.08c0-1.74.06-3.45.18-5.12V45.9A23.68,23.68,0,0,1,78,46,22.88,22.88,0,0,1,92.27,59.57a13.71,13.71,0,0,1,24.42,0A22.89,22.89,0,0,1,130.93,46a23.61,23.61,0,0,1,14.71-.05V46C145.77,47.63,145.82,49.34,145.82,51.08Z"/><path class="cls-1" d="M145.64,45.91a23.61,23.61,0,0,0-14.71.05,22.89,22.89,0,0,0-14.24,13.61,13.71,13.71,0,0,0-24.42,0A22.88,22.88,0,0,0,78,46a23.68,23.68,0,0,0-14.7-.06c1.37-18.93,11-33.53,41.15-33.53S144.27,27,145.64,45.91Z"/><circle class="cls-1" cx="104.49" cy="59.82" r="4.62"/><path class="cls-4" d="M97.46,46.46l-1.75-3.63a6.07,6.07,0,0,0-3.81-3.21L80.32,36.31"/><path class="cls-4" d="M111.52,46.46l1.75-3.63a6.06,6.06,0,0,1,3.82-3.21l11.57-3.31"/><path class="cls-1" d="M109.78,71.81a5.29,5.29,0,1,1-10.58,0,5.29,5.29,0,0,0,5.29-5.29A5.29,5.29,0,0,0,109.78,71.81Z"/><path class="cls-5" d="M104.49,66.52a5.29,5.29,0,0,1-10.58,0"/><path class="cls-5" d="M115.07,66.52a5.29,5.29,0,1,1-10.58,0"/></g></g></svg>